<?xml version="1.0" standalone="no"?>
<!DOCTYPE svg PUBLIC "-//W3C//DTD SVG 20010904//EN"
 "http://www.w3.org/TR/2001/REC-SVG-20010904/DTD/svg10.dtd">
<svg version="1.0" xmlns="http://www.w3.org/2000/svg"
 width="1000.000000pt" height="1000.000000pt" viewBox="0 0 1000.000000 1000.000000"
 preserveAspectRatio="xMidYMid meet">
<metadata>
Created by potrace 1.11, written by Peter Selinger 2001-2013
</metadata>
<g transform="translate(0.000000,1000.000000) scale(0.100000,-0.100000)"
fill="#000000" stroke="none">
<path d="M4505 9427 c-85 -45 -147 -111 -175 -183 -18 -47 -24 -86 -28 -193
-4 -108 -2 -133 9 -129 7 2 13 22 14 49 6 156 57 299 131 364 36 32 57 49 97
75 36 25 49 50 25 50 -7 0 -40 -15 -73 -33z"/>
<path d="M4609 9288 c-13 -18 -28 -41 -34 -50 -106 -177 -127 -233 -130 -348
-3 -81 2 -108 44 -265 16 -58 48 -129 61 -133 16 -6 11 33 -20 148 -27 100
-32 263 -11 350 14 58 63 169 112 252 43 73 26 109 -22 46z"/>
<path d="M5766 9248 c9 -18 20 -35 23 -38 17 -12 61 -101 80 -159 38 -117 20
-242 -54 -364 -19 -32 -35 -62 -35 -68 0 -5 -4 -9 -9 -9 -13 0 -20 -49 -8 -57
11 -7 97 85 97 104 0 6 4 13 8 15 17 7 83 133 97 184 24 94 6 167 -72 288 -55
86 -101 136 -125 136 -18 0 -18 -2 -2 -32z"/>
<path d="M5265 9101 c-43 -11 -87 -36 -111 -63 -99 -108 -68 -286 60 -347 26
-11 46 -24 46 -27 0 -3 29 -115 65 -249 36 -133 65 -245 65 -247 0 -3 -19 -9
-42 -13 -24 -4 -48 -9 -53 -10 -6 -1 -48 -5 -95 -9 -118 -9 -217 -21 -275 -32
-11 -2 -33 -7 -50 -9 -16 -3 -37 -8 -45 -10 -8 -2 -31 -7 -50 -11 -40 -7 -63
-12 -70 -14 -3 -1 -8 -2 -11 -2 -4 1 -159 -38 -249 -63 -55 -14 -241 -79 -325
-113 -223 -89 -418 -189 -615 -313 -52 -33 -104 -66 -115 -72 -10 -7 -25 -16
-32 -22 -7 -5 -18 -15 -25 -20 -7 -6 -31 -24 -53 -40 -22 -17 -46 -35 -53 -42
-7 -7 -33 -27 -57 -44 -25 -18 -45 -36 -45 -41 0 -4 -4 -8 -9 -8 -12 0 -110
-91 -236 -218 l-102 -103 -25 34 c-80 103 -234 215 -339 244 -32 9 -221 13
-234 5 -5 -4 -18 -8 -28 -9 -28 -5 -139 -61 -177 -91 -37 -29 -142 -132 -175
-172 -64 -78 -202 -316 -190 -328 3 -3 38 27 78 67 106 107 223 179 319 197
56 10 176 6 215 -7 162 -53 294 -164 418 -350 64 -96 156 -274 190 -369 68
-188 133 -420 154 -550 6 -36 13 -74 15 -85 3 -18 18 -114 31 -212 27 -194 28
-791 1 -1008 -10 -77 -18 -137 -26 -180 -5 -27 -12 -63 -15 -80 -23 -140 -60
-289 -112 -450 -25 -77 -49 -144 -53 -150 -4 -5 -11 -21 -15 -35 -18 -62 -167
-337 -194 -360 -3 -3 -19 -23 -35 -45 -78 -105 -243 -236 -319 -252 -72 -15
-23 -38 61 -28 167 18 310 108 447 280 22 28 43 52 48 53 4 2 7 9 7 17 0 7 6
18 13 24 11 8 22 3 49 -27 51 -54 188 -182 233 -217 21 -16 45 -37 54 -46 9
-8 54 -44 101 -80 47 -35 87 -67 90 -71 3 -3 5 -351 4 -772 -1 -756 0 -766 19
-760 11 3 62 32 113 63 52 31 103 60 114 66 11 5 20 13 20 17 0 5 5 8 10 8 6
0 36 16 66 35 30 19 59 35 64 35 6 0 10 4 10 8 0 5 15 16 33 25 17 9 52 29 78
44 25 16 83 51 130 79 46 28 179 109 294 179 116 70 239 145 275 167 36 21 72
43 80 48 175 110 218 133 250 133 38 1 156 -12 180 -18 15 -5 106 -14 195 -21
65 -5 485 -5 550 0 81 7 177 17 215 22 40 7 77 12 135 19 22 2 55 9 73 14 18
5 35 10 37 10 17 -1 106 17 205 41 328 80 707 230 958 379 29 17 55 31 57 31
5 0 167 106 182 119 7 6 15 11 19 11 7 0 183 132 259 194 152 125 373 351 461
471 10 15 31 41 46 58 15 18 28 35 28 39 0 4 6 13 13 20 11 12 28 36 67 93 77
115 247 425 233 425 -3 0 -1 6 5 13 6 7 30 64 55 127 40 103 55 150 103 325
18 65 54 251 54 279 0 14 15 30 48 50 26 17 79 62 118 100 222 221 273 569
127 865 -57 114 -158 231 -252 289 -52 32 -161 82 -185 85 -22 3 -34 23 -114
192 -54 114 -91 179 -161 285 -31 47 -58 89 -60 95 -2 5 -20 31 -40 56 -20 26
-45 59 -56 75 -11 15 -33 44 -50 63 -16 20 -41 49 -55 65 -93 109 -248 264
-351 351 -127 106 -210 167 -354 262 -60 40 -114 76 -120 80 -5 5 -21 14 -35
20 -14 7 -47 25 -75 41 -111 63 -314 161 -380 182 -22 7 -44 16 -50 20 -42 31
-508 170 -650 194 -16 3 -55 9 -85 15 -176 33 -195 35 -338 45 -56 4 -117 12
-135 17 -17 5 -64 9 -104 9 l-72 0 -15 53 c-50 178 -136 502 -136 513 0 7 11
34 25 60 57 107 11 246 -99 298 -41 19 -103 27 -141 17z m585 -1395 c36 -3 79
-8 95 -10 17 -3 55 -8 85 -11 98 -10 134 -15 210 -31 102 -21 94 -19 194 -44
49 -12 94 -23 100 -25 6 -1 18 -4 26 -7 8 -3 47 -15 85 -28 85 -27 243 -85
305 -112 94 -41 350 -172 350 -180 0 -4 5 -8 10 -8 29 0 346 -226 460 -326
119 -106 301 -297 349 -367 8 -12 22 -29 30 -37 15 -16 78 -108 145 -214 154
-243 294 -617 322 -854 3 -31 8 -59 9 -62 17 -29 25 -407 12 -530 -37 -318
-118 -590 -254 -850 -149 -282 -346 -533 -599 -761 -30 -27 -202 -165 -259
-207 -25 -19 -205 -131 -250 -157 -114 -63 -218 -115 -336 -164 -68 -29 -133
-56 -144 -61 -60 -26 -363 -115 -460 -135 -89 -18 -246 -46 -285 -51 -358 -42
-753 -36 -1030 15 -186 35 -196 35 -237 10 -21 -13 -50 -31 -64 -39 -22 -13
-274 -163 -319 -190 -8 -5 -91 -55 -184 -112 -94 -57 -174 -105 -179 -107 -5
-2 -59 -34 -120 -72 -120 -74 -126 -74 -121 -5 1 17 5 238 9 492 l6 460 -103
66 c-57 37 -112 74 -123 82 -108 82 -187 145 -219 175 -62 56 -228 222 -269
269 l-37 42 16 38 c56 133 157 581 179 792 4 30 8 70 10 87 28 202 27 827 -1
1058 -6 49 -24 178 -29 208 -2 12 -9 51 -15 87 -6 36 -13 79 -16 95 -3 17 -12
55 -19 85 -8 30 -17 69 -20 85 -3 17 -7 35 -9 40 -1 6 -8 30 -15 55 -18 66
-97 301 -111 332 -14 30 -13 32 60 118 59 70 231 241 300 299 30 25 60 51 66
56 6 6 23 19 38 30 15 11 36 27 46 35 51 43 240 168 320 210 25 14 53 31 63
39 9 8 17 11 17 7 0 -4 12 1 28 11 27 19 196 103 207 103 3 0 24 8 48 19 231
103 639 213 874 236 32 4 69 8 83 11 14 2 81 7 150 10 69 4 126 7 127 9 5 3
328 -4 393 -9z"/>
<path d="M5863 4375 c-89 -14 -135 -27 -202 -57 -109 -49 -171 -115 -73 -78
27 10 77 20 112 22 l64 3 -1 -89 c-2 -91 18 -219 38 -243 7 -7 9 -13 5 -13
-17 0 83 -149 100 -150 7 0 14 -6 17 -13 9 -24 113 -67 164 -67 134 0 273 138
309 305 25 116 23 261 -4 307 -10 17 -40 40 -72 56 -52 26 -63 27 -215 29 -95
1 -193 -4 -242 -12z"/>
<path d="M7397 4135 c-86 -24 -117 -57 -117 -125 0 -22 7 -33 30 -45 40 -21
63 -19 208 14 237 55 303 61 387 36 32 -9 60 -14 63 -10 15 15 -129 105 -168
105 -11 0 -21 4 -24 8 -3 5 -18 9 -33 10 -15 1 -49 5 -75 10 -72 14 -217 12
-271 -3z"/>
<path d="M6946 3554 c-20 -19 -20 -38 -2 -57 20 -20 56 -16 72 8 12 18 11 24
-2 43 -18 26 -46 28 -68 6z"/>
<path d="M6040 9043 c1 -10 7 -47 14 -82 16 -71 14 -211 -2 -252 -6 -15 -8
-30 -5 -33 4 -3 0 -6 -7 -6 -7 0 -10 -3 -7 -7 9 -8 -41 -97 -76 -138 -87 -101
-90 -105 -57 -105 11 0 20 5 20 10 0 6 6 10 13 11 6 0 37 29 67 65 121 144
139 221 100 414 -23 109 -34 140 -50 140 -6 0 -10 -8 -10 -17z"/>
<path d="M1634 6579 c-5 -8 13 -22 32 -25 25 -4 126 -76 177 -126 29 -29 69
-75 87 -103 19 -27 36 -52 39 -55 6 -5 8 -8 63 -110 63 -116 135 -312 174
-480 30 -126 32 -135 40 -184 3 -22 7 -43 9 -46 2 -3 6 -34 10 -70 4 -36 9
-73 11 -83 10 -54 18 -236 18 -417 1 -178 -3 -263 -18 -430 -4 -44 -21 -151
-31 -200 -3 -14 -8 -41 -11 -60 -12 -80 -78 -310 -120 -417 -191 -496 -493
-710 -784 -558 -37 20 -92 60 -122 90 -88 87 -101 73 -36 -38 145 -250 321
-382 502 -378 34 1 69 2 78 2 10 0 20 4 23 10 4 5 12 9 20 9 24 0 138 72 188
119 52 48 157 183 157 200 0 6 4 11 8 11 4 0 13 12 19 28 6 15 19 41 29 57 9
17 21 37 26 45 4 8 13 26 18 40 6 14 15 34 20 45 31 65 117 337 135 428 10 54
16 83 26 127 6 25 13 61 15 80 3 19 6 46 8 60 2 14 6 45 9 70 24 176 31 290
31 520 0 118 -3 247 -7 285 -4 39 -9 102 -12 140 -4 39 -8 77 -10 85 -2 8 -7
39 -10 69 -4 30 -9 63 -11 75 -2 12 -7 35 -10 51 -3 17 -9 48 -14 70 -5 22
-11 54 -14 71 -9 50 -75 273 -102 344 -34 87 -120 263 -161 327 -39 61 -120
163 -142 179 -9 7 -32 26 -51 43 -42 37 -141 87 -190 96 -58 10 -110 12 -116
4z"/>
<path d="M1070 6127 c-90 -33 -168 -104 -248 -227 -62 -96 -58 -114 13 -52 24
21 67 51 95 65 96 50 229 30 322 -48 161 -136 297 -448 344 -790 3 -27 9 -59
11 -70 13 -53 11 -526 -2 -635 -25 -199 -76 -402 -138 -539 -11 -25 -21 -51
-22 -56 -4 -18 -66 -117 -103 -165 -45 -58 -110 -117 -144 -133 -43 -18 -37
-41 9 -34 186 31 366 282 463 647 7 25 13 52 15 60 2 8 8 33 13 55 6 22 16 74
22 115 6 41 13 85 15 97 24 154 25 607 1 739 -2 10 -6 42 -10 69 -8 60 -26
154 -33 175 -3 8 -7 22 -8 30 -12 83 -74 259 -132 375 -72 145 -159 248 -253
299 -62 34 -172 44 -230 23z"/>
<path d="M735 5381 c-48 -22 -105 -78 -105 -103 0 -17 2 -17 36 -3 44 18 106
19 137 3 145 -82 238 -336 239 -654 0 -253 -71 -497 -173 -597 -31 -29 -37
-47 -16 -47 28 0 110 75 123 113 3 9 10 17 15 17 5 0 9 5 9 11 0 5 11 34 24
63 22 47 39 99 52 158 2 10 6 28 9 41 16 71 26 177 26 287 1 173 -7 236 -46
390 -21 80 -84 215 -122 256 -68 75 -138 97 -208 65z"/>
</g>
</svg>
